<svg xmlns="http://www.w3.org/2000/svg" width="490" height="402.574" viewBox="0 0 490 402.574">
  <g id="Group_3" data-name="Group 3" transform="translate(-498 -1223)">
    <rect id="Rectangle_1" data-name="Rectangle 1" width="490" height="149" rx="33" transform="translate(498 1350)" fill="#838383"/>
    <g id="Group_1" data-name="Group 1" transform="translate(12 3)">
      <path id="Path_1" data-name="Path 1" d="M351.823,334.711a200.749,200.749,0,0,0-3.887-271.09h0c0-.042-.069-.056-.09-.09A200.721,200.721,0,0,0,208.227.18h0L204.333.069C203.319,0,202.306,0,201.286,0s-2.034,0-3.047.069l-3.894.1h0A200.721,200.721,0,0,0,54.739,63.524c0,.035-.069.049-.09.09A200.728,200.728,0,0,0,50.755,334.7c.042.062.042.132.09.194.125.174.305.257.437.417a200.833,200.833,0,0,0,143.062,67.1h0l3.908.1c1.02,0,2.034.063,3.054.063s2.034-.035,3.047-.069l3.873-.1h0a200.826,200.826,0,0,0,143.159-67.224c.09-.118.236-.153.319-.278S351.781,334.774,351.823,334.711ZM14.051,208.232H97.343a256.514,256.514,0,0,0,16.763,84.8,255.937,255.937,0,0,0-56.3,28.673A186.541,186.541,0,0,1,14.051,208.232ZM67.261,76.476c17.134,11.144,29.9,20.225,49.191,26.98a256.311,256.311,0,0,0-19.088,90.893H14.072c1.574-43.632,24.042-85.366,53.189-117.873ZM388.52,194.349H305.228a256.312,256.312,0,0,0-19.088-90.928,255.312,255.312,0,0,0,54.834-26.945A186.589,186.589,0,0,1,388.52,194.349ZM194.345,103.859a242.645,242.645,0,0,1-58.8-8.905,242.853,242.853,0,0,1,58.8-76.6Zm0,13.882v76.608h-83.1a242.423,242.423,0,0,1,18.5-86.59,256.459,256.459,0,0,0,64.593,9.981Zm13.882,0a256.251,256.251,0,0,0,64.6-9.981,242.423,242.423,0,0,1,18.5,86.59H208.227Zm0-13.882V18.352a242.853,242.853,0,0,1,58.8,76.6,242.646,242.646,0,0,1-58.8,8.905Zm72.249-13.126a256.332,256.332,0,0,0-54.751-75.206A186.867,186.867,0,0,1,331.083,66.322,241.425,241.425,0,0,1,280.476,90.733Zm-158.381,0A241.812,241.812,0,0,1,75.141,68.6c-1.076-.656,1.285.817,0,0,28.78-27.772,62.059-47.853,101.712-53.071A256.229,256.229,0,0,0,122.1,90.733Zm-10.849,117.5h83.1v69.674a256.008,256.008,0,0,0-67.058,10.7,242.41,242.41,0,0,1-16.041-80.37Zm83.1,83.556v92.441a242.728,242.728,0,0,1-61.664-82.716,242.017,242.017,0,0,1,61.664-9.725Zm13.882,92.441V291.788a242.007,242.007,0,0,1,61.664,9.718,242.687,242.687,0,0,1-61.664,82.723Zm0-106.323V208.232h83.1a242.319,242.319,0,0,1-16.048,80.377A255.624,255.624,0,0,0,208.227,277.906Zm96.98-69.674H388.5A186.5,186.5,0,0,1,344.722,321.7a255.934,255.934,0,0,0-56.3-28.674A256.339,256.339,0,0,0,305.207,208.232ZM67.261,332.1a241.9,241.9,0,0,1,52.176-26.244,256.124,256.124,0,0,0,57.409,81.21A187.013,187.013,0,0,1,67.261,332.1Zm158.464,54.952a255.972,255.972,0,0,0,57.409-81.21,242.064,242.064,0,0,1,52.176,26.244,187.012,187.012,0,0,1-109.585,54.966Z" transform="translate(515.918 1220)" fill="#838383"/>
      <path id="Path_1-2" data-name="Path 1" d="M351.823,334.711a200.749,200.749,0,0,0-3.887-271.09h0c0-.042-.069-.056-.09-.09A200.721,200.721,0,0,0,208.227.18h0L204.333.069C203.319,0,202.306,0,201.286,0s-2.034,0-3.047.069l-3.894.1h0A200.721,200.721,0,0,0,54.739,63.524c0,.035-.069.049-.09.09A200.728,200.728,0,0,0,50.755,334.7c.042.062.042.132.09.194.125.174.305.257.437.417a200.833,200.833,0,0,0,143.062,67.1h0l3.908.1c1.02,0,2.034.063,3.054.063s2.034-.035,3.047-.069l3.873-.1h0a200.826,200.826,0,0,0,143.159-67.224c.09-.118.236-.153.319-.278S351.781,334.774,351.823,334.711ZM14.051,208.232H97.343a256.514,256.514,0,0,0,16.763,84.8,255.937,255.937,0,0,0-56.3,28.673A186.541,186.541,0,0,1,14.051,208.232ZM67.261,76.476c17.134,11.144,29.9,20.225,49.191,26.98a256.311,256.311,0,0,0-19.088,90.893H14.072c1.574-43.632,24.042-85.366,53.189-117.873ZM388.52,194.349H305.228a256.312,256.312,0,0,0-19.088-90.928,255.312,255.312,0,0,0,54.834-26.945A186.589,186.589,0,0,1,388.52,194.349ZM194.345,103.859a242.645,242.645,0,0,1-58.8-8.905,242.853,242.853,0,0,1,58.8-76.6Zm0,13.882v76.608h-83.1a242.423,242.423,0,0,1,18.5-86.59,256.459,256.459,0,0,0,64.593,9.981Zm13.882,0a256.251,256.251,0,0,0,64.6-9.981,242.423,242.423,0,0,1,18.5,86.59H208.227Zm0-13.882V18.352a242.853,242.853,0,0,1,58.8,76.6,242.646,242.646,0,0,1-58.8,8.905Zm72.249-13.126a256.332,256.332,0,0,0-54.751-75.206A186.867,186.867,0,0,1,331.083,66.322,241.425,241.425,0,0,1,280.476,90.733Zm-158.381,0A241.812,241.812,0,0,1,75.141,68.6c-1.076-.656,1.285.817,0,0,28.78-27.772,62.059-47.853,101.712-53.071A256.229,256.229,0,0,0,122.1,90.733Zm-10.849,117.5h83.1v69.674a256.008,256.008,0,0,0-67.058,10.7,242.41,242.41,0,0,1-16.041-80.37Zm83.1,83.556v92.441a242.728,242.728,0,0,1-61.664-82.716,242.017,242.017,0,0,1,61.664-9.725Zm13.882,92.441V291.788a242.007,242.007,0,0,1,61.664,9.718,242.687,242.687,0,0,1-61.664,82.723Zm0-106.323V208.232h83.1a242.319,242.319,0,0,1-16.048,80.377A255.624,255.624,0,0,0,208.227,277.906Zm96.98-69.674H388.5A186.5,186.5,0,0,1,344.722,321.7a255.934,255.934,0,0,0-56.3-28.674A256.339,256.339,0,0,0,305.207,208.232ZM67.261,332.1a241.9,241.9,0,0,1,52.176-26.244,256.124,256.124,0,0,0,57.409,81.21A187.013,187.013,0,0,1,67.261,332.1Zm158.464,54.952a255.972,255.972,0,0,0,57.409-81.21,242.064,242.064,0,0,1,52.176,26.244,187.012,187.012,0,0,1-109.585,54.966Z" transform="translate(528.918 1220)" fill="#838383"/>
    </g>
    <text id="NEWS" transform="translate(547 1469)" fill="#fff" font-size="120" font-family="Arial-Black, Arial Black" font-weight="800"><tspan x="0" y="0">NEWS</tspan></text>
  </g>
</svg>
