<svg xmlns="http://www.w3.org/2000/svg" width="38" height="50" viewBox="0 0 38 50">
  <defs>
    <style>
      .cls-1 {
        fill: #fff;
        fill-rule: evenodd;
      }
    </style>
  </defs>
  <path id="icon" class="cls-1" d="M740.365,2354.85a13.421,13.421,0,0,1,16.015,6.68c2.169,3.92,1.3,8.51,1.468,12.79,1.346,0.05,2.831-.15,4.007.67a4.04,4.04,0,0,1,1.621,3.67c-0.04,7.34.026,14.68-.031,22.02a3.664,3.664,0,0,1-3.859,3.52c-10.179-.03-20.353-0.01-30.532-0.01a3.621,3.621,0,0,1-3.532-3.97c0.047-7.63-.07-15.27.056-22.9,0.388-2.6,3.3-3.27,5.506-3,0.039-2.5-.048-5,0.043-7.49a13.491,13.491,0,0,1,9.238-11.98m-6.96,8.42c-1.424,3.52-.653,7.39-0.849,11.08,1.2,0,2.408,0,3.615-.01,0.056-2.54-.1-5.07.078-7.6a8.275,8.275,0,0,1,16.207-1.29c0.579,2.92.157,5.93,0.292,8.89,1.219,0.01,2.443.01,3.667,0.01-0.017-2.53.1-5.06-.056-7.58a12.151,12.151,0,0,0-6.094-9.54,11.941,11.941,0,0,0-8.567-1.2,12.07,12.07,0,0,0-8.293,7.24m4.312,3.98c-0.091,2.36-.017,4.73-0.026,7.09,4.53,0.01,9.059,0,13.589.01-0.113-2.81.248-5.66-.24-8.44a6.782,6.782,0,0,0-13.323,1.34m-9.8,8.99a2.562,2.562,0,0,0-.962,2.41c0.013,7.19-.009,14.39.009,21.59a2.32,2.32,0,0,0,2.508,2.49c9.887,0.02,19.77,0,29.653.01a2.818,2.818,0,0,0,2.217-.69c0.727-.69.592-1.79,0.627-2.7-0.035-7.05.017-14.11-.022-21.16a2.172,2.172,0,0,0-2.387-2.31c-9.878-.03-19.761,0-29.639-0.02a3.716,3.716,0,0,0-2,.38h0Zm1.712,2.3c0.488,0,.98.01,1.472,0.01,0.009,0.48.018,0.97,0.026,1.46-0.514-.02-1.023-0.03-1.533-0.04,0.009-.48.018-0.96,0.035-1.43h0Zm28.254,0.11c0.462-.1.937-0.14,1.412-0.2,0,0.52,0,1.05.008,1.57-0.4-.01-1.189-0.01-1.581-0.01,0.04-.35.122-1.02,0.161-1.36h0Zm-17.971,5.73a4.58,4.58,0,0,1,5.2-4.16,4.658,4.658,0,0,1,3.916,5.09c-0.222,1.72-1.716,3-1.707,4.78a52.862,52.862,0,0,0,.544,5.66c-2.252.05-4.5,0.03-6.755,0.02,0.091-1.75.413-3.47,0.54-5.2,0.213-2.28-2.1-3.89-1.743-6.19m1.747-.87c-0.788,1.37.131,2.79,0.767,4,1.167,2.06.522,4.51,0.326,6.73h3.4c-0.131-2.25-.841-4.68.362-6.76,0.8-1.33,1.585-3.08.474-4.49a3.087,3.087,0,0,0-5.331.52h0Zm-12.052,15.04q0.751-.015,1.5,0v1.49c-0.5,0-.989.01-1.485,0.02-0.009-.51-0.013-1.01-0.018-1.51h0Zm28.229-.01c0.487,0,.98,0,1.476.02,0,0.49-.009.99-0.013,1.49-0.492,0-.98,0-1.468.01,0-.51,0-1.02,0-1.52h0Z" transform="translate(-725.5 -2354.19)"/>
</svg>
