<svg xmlns="http://www.w3.org/2000/svg" width="60" height="60" viewBox="0 0 60 60">
  <defs>
    <style>
      .cls-1 {
        fill: #fff;
        fill-rule: evenodd;
      }
    </style>
  </defs>
  <path id="icon" class="cls-1" d="M743.162,2055.12q0.831-.075,1.678-0.12c0.031,0.62.068,1.25,0.11,1.88h-1.735c-0.01-.44-0.037-1.32-0.053-1.76h0Zm-7.762,1.22c0.585-.17,1.176-0.34,1.772-0.49,0.116,0.42.337,1.27,0.448,1.69-0.559.17-1.118,0.35-1.666,0.53-0.19-.58-0.375-1.15-0.554-1.73h0Zm15.42-.52c0.617,0.17,1.25.35,1.877,0.53-0.2.6-.395,1.2-0.585,1.81q-0.759-.315-1.471-0.69c0.042-.41.131-1.23,0.179-1.65h0Zm-20.942,2.78c0.253,0.51.517,1.01,0.754,1.55-0.474.34-.97,0.64-1.455,0.96-0.3-.53-0.591-1.06-0.875-1.59,0.522-.31,1.044-0.62,1.576-0.92h0Zm28.283,0.02c0.553,0.29,1.107.58,1.666,0.89-0.316.53-.627,1.05-0.933,1.59-0.48-.31-0.96-0.61-1.4-0.94,0.206-.53.427-1.04,0.67-1.54h0Zm-17.746,2.37a24.29,24.29,0,1,1-20.161,19.07,24.207,24.207,0,0,1,20.161-19.07m-1.587,2.13a22.626,22.626,0,0,0-17.2,20.18,22.5,22.5,0,1,0,43.977-4.78,22.54,22.54,0,0,0-26.774-15.4h0Zm-15.384.04c0.443,0.43.881,0.87,1.329,1.31-0.443.41-.886,0.82-1.323,1.24l-1.2-1.2c0.4-.45.786-0.91,1.2-1.35h0Zm39.89,1.45c0.433-.5.87-0.98,1.318-1.46,0.375,0.43.781,0.88,1.166,1.32-0.359.4-.712,0.8-1.06,1.21-0.48-.35-0.955-0.72-1.424-1.07h0Zm6.144,4.62c0.332,0.57.654,1.14,0.97,1.73-0.548.22-1.1,0.45-1.64,0.67-0.264-.48-0.517-0.96-0.77-1.43,0.475-.33.955-0.66,1.44-0.97h0Zm-51.7,1.56c0.19-.52.4-1.03,0.639-1.54,0.59,0.31,1.186.63,1.782,0.96-0.369.48-.717,0.98-1.118,1.44a5.8,5.8,0,0,1-1.3-.86h0Zm22.888,0.65c0.9-.74,1.756-1.95,3.1-1.63,1.25,0.03,1.835,1.23,2.4,2.15a3.271,3.271,0,0,1,3.586,2.74c1.35,0.16,3.07.67,3.212,2.3,0.19,3.49.053,6.99,0.063,10.48,0.042,3.33-1.819,6.25-2.13,9.52a3.926,3.926,0,0,1-2.864,3.13c-2.1.2-4.229,0.1-6.334,0.09a3.889,3.889,0,0,1-3.623-2.27c-0.327-.95-0.421-1.94-0.748-2.88-1.229-1.59-3.027-2.7-3.982-4.5-0.886-1.75-1.883-3.44-2.663-5.23a2.6,2.6,0,0,1,2.573-3.37c2.089,0.05,2.679,2.41,3.929,3.69,0.248-3.95-.068-7.9.158-11.84,0.032-1.78,1.941-2.15,3.323-2.38m2.014,0.22c-0.306,3.81-.052,7.63-0.158,11.44l-1.8-.08c-0.143-3.19.316-6.44-.264-9.58-0.554-.14-1.477.04-1.34,0.8-0.095,4.55-.01,9.1-0.031,13.65a6.915,6.915,0,0,1-3.644-1.43c-0.728-.87-1.271-1.88-1.909-2.81-0.449.29-1.456,0.32-1.1,1.1,1.234,2.49,2.241,5.26,4.393,7.15,0.928,0.94,2.151,1.78,2.426,3.16,0.321,1.26.342,3.02,1.945,3.34a47.3,47.3,0,0,0,5.833.05,2.093,2.093,0,0,0,2.083-1.99c0.29-3.09,2.157-5.81,2.094-8.96-0.053-3.52.1-7.06-.1-10.57-0.227-.08-0.691-0.23-0.923-0.3l-0.475.36c-0.321,2.72-.037,5.47-0.174,8.2-0.6-.01-1.192-0.01-1.777-0.01-0.074-3.53.121-7.07-.084-10.59,0.074-1.05-.865-0.87-1.508-0.52-0.37,3.1-.059,6.25-0.159,9.37-0.437,0-1.313-.01-1.751-0.01-0.01-3.87.048-7.73-.037-11.6-0.384-.04-1.16-0.12-1.545-0.17h0Zm-27.291,4.72c0.586,0.18,1.171.36,1.762,0.54q-0.317.825-.68,1.62c-0.559-.13-1.108-0.27-1.646-0.43,0.185-.58.375-1.16,0.564-1.73h0Zm55.906,2.13c-0.417-1.27.174-2.01,1.424-2.24,0.158,0.64.337,1.29,0.5,1.94-0.644.1-1.287,0.2-1.92,0.3h0ZM714,2084.07a15.958,15.958,0,0,1,1.815.19c0.036,0.44.105,1.33,0.142,1.78-0.432-.04-1.308-0.14-1.74-0.18a17.679,17.679,0,0,1-.217-1.79h0Zm58.337,0.2c0.543-.11,1.1-0.16,1.661-0.22-0.01.63-.01,1.26-0.01,1.9-0.459,0-1.371-.01-1.83-0.01,0.047-.41.132-1.25,0.179-1.67h0Zm-57.435,7.61,1.725-.4q0.213,0.87.427,1.77c-0.438.08-1.313,0.25-1.751,0.33-0.142-.57-0.274-1.14-0.4-1.7h0Zm56.17,1.33c0.126-.59.268-1.17,0.411-1.75,0.443,0.12,1.329.35,1.772,0.47-0.185.56-.375,1.13-0.554,1.7q-0.822-.21-1.629-0.42h0Zm-53.406,6.11c0.485-.35.975-0.7,1.471-1.04,0.311,0.53.627,1.08,0.944,1.63-0.506.28-1.013,0.57-1.514,0.86-0.311-.49-0.606-0.96-0.9-1.45h0Zm51.106-.99c0.559,0.3,1.129.63,1.693,0.95l-0.907,1.48c-0.5-.27-0.986-0.52-1.477-0.78,0.227-.55.454-1.1,0.691-1.65h0Zm-46.524,7.26c0.438-.44.876-0.89,1.329-1.33,0.38,0.48.77,0.97,1.155,1.46-0.448.35-.9,0.71-1.339,1.08-0.285-.3-0.86-0.91-1.145-1.21h0Zm41.113,0.01c0.433-.44.86-0.88,1.3-1.31,0.4,0.43.807,0.88,1.213,1.32-0.448.41-.9,0.8-1.34,1.21-0.295-.31-0.88-0.91-1.176-1.22h0Zm-34.236,3.4c0.517,0.26,1.044.52,1.572,0.79-0.248.53-.5,1.07-0.739,1.61-0.548-.26-1.1-0.53-1.634-0.79,0.258-.54.527-1.08,0.8-1.61h0Zm28.261,0.79q0.8-.4,1.614-0.78c0.259,0.51.522,1.04,0.786,1.57-0.533.28-1.055,0.56-1.577,0.85-0.279-.55-0.554-1.1-0.823-1.64h0Zm-21.416,2.23c0.559,0.15,1.118.31,1.688,0.48-0.169.55-.338,1.12-0.5,1.69-0.586-.16-1.171-0.32-1.746-0.48,0.185-.57.369-1.14,0.559-1.69h0Zm14.492,0.42c0.58-.13,1.166-0.25,1.756-0.37q0.215,0.825.443,1.65l-1.7.48c-0.179-.59-0.337-1.17-0.5-1.76h0Zm-7.272.79c0.57,0,1.144,0,1.719.01,0,0.44,0,1.31.011,1.75-0.433,0-1.3-.01-1.73-0.01v-1.75h0Z" transform="translate(-714 -2055)"/>
</svg>
