<svg xmlns="http://www.w3.org/2000/svg" width="48.97" height="49.97" viewBox="0 0 48.97 49.97">
  <defs>
    <style>
      .cls-1 {
        fill: #fff;
        fill-rule: evenodd;
      }
    </style>
  </defs>
  <path id="icon" class="cls-1" d="M1172.57,2353.99a23.943,23.943,0,0,1,18.83,5.2,25.307,25.307,0,0,1,4.61,34.1,24.539,24.539,0,0,1-14.32,9.76,24.2,24.2,0,0,1-18.24-2.98,25.284,25.284,0,0,1-6.52-36.84,24.319,24.319,0,0,1,15.64-9.24m0.13,1.54a22.582,22.582,0,0,0-13.06,6.91,23.75,23.75,0,0,0-1.76,30.47,22.71,22.71,0,0,0,36.7-.24,23.768,23.768,0,0,0-2.63-30.93,22.533,22.533,0,0,0-19.25-6.21h0Zm-0.32,3.66a19.129,19.129,0,0,1,15.21,3.43,20.187,20.187,0,0,1,4.85,26.98,19.282,19.282,0,0,1-16.05,8.96,19.052,19.052,0,0,1-14.81-6.65,20.117,20.117,0,0,1-4.73-16.01,19.805,19.805,0,0,1,15.53-16.71m-0.63,1.72a18.509,18.509,0,0,0-9.68,29.19,17.812,17.812,0,0,0,16.89,6.73,18.049,18.049,0,0,0,12.35-8.3,18.71,18.71,0,0,0,1.96-15.39,18.417,18.417,0,0,0-9.35-10.97,17.782,17.782,0,0,0-12.17-1.26h0Zm1.74,18.07c3.56-3.57,6.99-7.26,10.62-10.75,1.63,1.71,3.3,3.37,4.93,5.07q-7.74,7.965-15.55,15.87c-3.41-3.51-6.87-6.98-10.26-10.51,1.66-1.7,3.3-3.41,5.01-5.07,1.75,1.79,3.52,3.57,5.25,5.39m0.06,2.17c-1.82-1.75-3.53-3.62-5.33-5.37-0.96.98-1.91,1.95-2.86,2.93,2.72,2.75,5.42,5.55,8.15,8.29,4.48-4.55,8.93-9.12,13.4-13.66-0.96-.96-1.9-1.94-2.83-2.92-3.54,3.55-7.03,7.14-10.53,10.73h0Z" transform="translate(-1151.66 -2353.72)"/>
</svg>
