<svg xmlns="http://www.w3.org/2000/svg" width="42" height="50" viewBox="0 0 42 50">
  <defs>
    <style>
      .cls-1 {
        fill: #fff;
        fill-rule: evenodd;
      }
    </style>
  </defs>
  <path id="icon" class="cls-1" d="M1155.03,2066.33c7.3-3.86,15.55-6.09,23.82-5.4,6.39,0.32,12.52,2.5,18.18,5.42-0.02,6.02.01,12.04-.02,18.05a23.209,23.209,0,0,1-8.79,17.74c-3.39,2.65-6.76,5.33-10.18,7.95a3.252,3.252,0,0,1-4.1-.02c-3.36-2.58-6.68-5.23-10.03-7.83a23.236,23.236,0,0,1-8.87-16.95c-0.01-6.32.01-12.64-.01-18.96m1.43,1c0.02,5.69-.02,11.38.02,17.07a21.8,21.8,0,0,0,8.24,16.56c3.36,2.63,6.71,5.29,10.1,7.89a1.827,1.827,0,0,0,2.46-.05c3.38-2.62,6.74-5.28,10.12-7.91a21.629,21.629,0,0,0,8.1-16.49c0.02-5.7-.01-11.4.01-17.11a43.6,43.6,0,0,0-13.41-4.5,40.979,40.979,0,0,0-25.64,4.54h0Zm5.08,3.89a28.791,28.791,0,0,1,29.08.02c0.01,4.09,0,8.17.01,12.26a17.072,17.072,0,0,1-3.77,10.99,25.9,25.9,0,0,1-4.69,4.18c-2.07,1.61-4.1,3.25-6.2,4.82-2.8-2.24-5.64-4.42-8.45-6.64a16.615,16.615,0,0,1-6.08-13.31c0.07-4.1-.13-8.22.1-12.32m1.36,0.89q-0.015,5.46-.01,10.91h4.78a8.685,8.685,0,0,1,7.62-7.7c0.01-2.19.01-4.37-.01-6.56a28.512,28.512,0,0,0-12.38,3.35m13.87-3.33c-0.02,2.18-.02,4.37,0,6.55a8.578,8.578,0,0,1,7.55,7.7c1.6-.01,3.21,0,4.82-0.01-0.01-3.63-.02-7.25,0-10.87a27.528,27.528,0,0,0-12.37-3.37m-2.54,8.28a6.948,6.948,0,0,0-5.03,6.46,6.809,6.809,0,1,0,5.03-6.46m-11.39,7.42a15.68,15.68,0,0,0,5.62,11.21c2.28,1.75,4.48,3.6,6.84,5.25-0.01-2.92,0-5.85-.01-8.77a8.713,8.713,0,0,1-7.61-7.69c-1.61-.03-3.22-0.03-4.84,0m21.48-.03a8.606,8.606,0,0,1-7.55,7.7c-0.03,2.95,0,5.91-.02,8.86,2.42-1.93,4.91-3.76,7.29-5.75a15.481,15.481,0,0,0,5.11-10.79c-1.61-.02-3.22-0.01-4.83-0.02h0Zm-9.57-3.76c2.37-1.21,5.3,1.5,4.38,4a3.253,3.253,0,0,1-5.19,1.6,3.348,3.348,0,0,1,.81-5.6m0.49,1.43a1.779,1.779,0,1,0,2.42,2.24,1.78,1.78,0,0,0-2.42-2.24h0Z" transform="translate(-1155.03 -2060.81)"/>
</svg>
