<svg height="512" viewBox="0 0 64 64" width="512" xmlns="http://www.w3.org/2000/svg"><g id="Flat"><g id="Stroke_copy_2" data-name="Stroke copy 2"><g><path d="m61 26v-3l-11-7.586v-12.414h-8v6.897l-10-6.897-29 20v3h6v31h-6v4h58v-4h-6v-31z" fill="#d0d8da"/><path d="m55 50h-4a28 28 0 0 1 -28-28v-12.793l-20 13.793v3h6v31h-6v4h58v-4h-6z" fill="#93999a"/><g><path d="m24 43.26v-17.26a4 4 0 0 0 -8 0v17.26a7 7 0 1 0 8 0z" fill="#84d2f4"/><path d="m23.036 23.423a3.984 3.984 0 0 0 -7.036 2.577v17.26a7 7 0 1 0 8 0v-13.845a27.92 27.92 0 0 1 -.964-5.992z" fill="#57b7eb"/><path d="m25 52a5 5 0 0 1 -5-5v-25a4 4 0 0 0 -4 4v17.26a7 7 0 1 0 10.317 8.74z" fill="#4891d3"/><circle cx="20" cy="49" fill="#f9e109" r="3"/><g fill="#fcbc04"><path d="m20 28h4v2h-4z"/><path d="m20 32h4v2h-4z"/><path d="m20 36h4v2h-4z"/><path d="m20 40h4v2h-4z"/></g><path d="m20 48a1 1 0 0 1 -1-1v-21a1 1 0 0 1 2 0v21a1 1 0 0 1 -1 1z" fill="#f9e109"/><path d="m22.143 51.1a4.988 4.988 0 0 1 -2.143-4.1v-1a3 3 0 1 0 2.143 5.1z" fill="#fcbc04"/><path d="m20.1 47.98a5.019 5.019 0 0 1 -.1-.98v-22a1 1 0 0 0 -1 1v21a1 1 0 0 0 1 1 .826.826 0 0 0 .1-.02z" fill="#fcbc04"/></g><g><path d="m27 42h24v19h-24z" fill="#f9e109"/><path d="m27 42v19h24v-19zm21 14h-10a6 6 0 0 1 -6-6v-5h12a4 4 0 0 1 4 4z" fill="#fcbc04"/><path d="m31.412 42h-4.412v19h24v-11a27.906 27.906 0 0 1 -19.588-8z" fill="#fcbc04"/><path d="m48 56h-10a6 6 0 0 1 -6-6v-5h3.049a28.143 28.143 0 0 1 -3.637-3h-4.412v19h24v-11a28.307 28.307 0 0 1 -3-.163z" fill="#e59730"/><path d="m37 58h-4a1 1 0 0 1 -1-1v-4a1 1 0 0 1 1-1h3v-2h-3a1 1 0 0 1 0-2h4a1 1 0 0 1 1 1v4a1 1 0 0 1 -1 1h-3v2h3a1 1 0 0 1 0 2z" fill="#57b7eb"/><path d="m45 58h-4a1 1 0 0 1 0-2h3v-2h-3a1 1 0 0 1 -1-1v-4a1 1 0 0 1 1-1h4a1 1 0 0 1 0 2h-3v2h3a1 1 0 0 1 1 1v4a1 1 0 0 1 -1 1z" fill="#84d2f4"/><path d="m46 53v4a1 1 0 0 1 -1 1h-4a1 1 0 0 1 0-2h3v-2h-3a1 1 0 0 1 -1-1v-4a.978.978 0 0 1 .72-.95 26.541 26.541 0 0 0 5.13 1.47.983.983 0 0 1 -.85.48h-3v2h3a1 1 0 0 1 1 1z" fill="#57b7eb"/><circle cx="47" cy="46" fill="#84d2f4" r="1"/><path d="m38 57a1 1 0 0 1 -1 1h-4a1 1 0 0 1 -1-1v-4a1.008 1.008 0 0 1 .42-.81 5.858 5.858 0 0 0 1.58 2.27v1.54h3a1 1 0 0 1 1 1z" fill="#4891d3"/><path d="m46 56v1a1 1 0 0 1 -1 1h-4a1 1 0 0 1 0-2z" fill="#4891d3"/><path d="m48 46a1 1 0 0 1 -.59.91 3.967 3.967 0 0 0 -1.32-1.32 1 1 0 0 1 1.91.41z" fill="#57b7eb"/></g><g><circle cx="39" cy="29" fill="#84d2f4" r="9"/><path d="m44 33a8.99 8.99 0 0 1 -8.349-12.349 9 9 0 1 0 11.7 11.7 8.963 8.963 0 0 1 -3.351.649z" fill="#57b7eb"/><path d="m41.121 30.879a1 1 0 0 1 -.707-.293 2.047 2.047 0 0 0 -2.828 0 1 1 0 0 1 -1.414-1.414 4.093 4.093 0 0 1 5.656 0 1 1 0 0 1 -.707 1.707z" fill="#f9e109"/><path d="m43.95 28.05a.993.993 0 0 1 -.707-.293 6.008 6.008 0 0 0 -8.486 0 1 1 0 1 1 -1.414-1.414 8.01 8.01 0 0 1 11.314 0 1 1 0 0 1 -.707 1.707z" fill="#f9e109"/><g fill="#fcbc04"><circle cx="39" cy="33" r="1"/><path d="m35.06 25.04a8.728 8.728 0 0 0 .49 2.06 5.423 5.423 0 0 0 -.79.66 1 1 0 1 1 -1.42-1.42 7.637 7.637 0 0 1 1.72-1.3z"/><path d="m37.74 30.46a.934.934 0 0 0 -.15.13 1 1 0 1 1 -1.42-1.42 3.584 3.584 0 0 1 .29-.26 9.018 9.018 0 0 0 1.28 1.55z"/><path d="m37.74 30.46a.934.934 0 0 0 -.15.13 1 1 0 1 1 -1.42-1.42 3.584 3.584 0 0 1 .29-.26 9.018 9.018 0 0 0 1.28 1.55z"/><path d="m35.55 27.1a5.423 5.423 0 0 0 -.79.66 1 1 0 1 1 -1.42-1.42 7.637 7.637 0 0 1 1.72-1.3 8.728 8.728 0 0 0 .49 2.06z"/></g></g></g></g></g></svg>