<?xml version="1.0" encoding="iso-8859-1"?>
<!-- Generator: Adobe Illustrator 19.0.0, SVG Export Plug-In . SVG Version: 6.00 Build 0)  -->
<svg version="1.1" id="Capa_1" xmlns="http://www.w3.org/2000/svg" xmlns:xlink="http://www.w3.org/1999/xlink" x="0px" y="0px"
	 viewBox="0 0 512 512" style="enable-background:new 0 0 512 512;" xml:space="preserve">
<g>
	<g>
		<g>
			<path d="M368,217.92c0-26.51-21.49-48-48-48c-26.51,0-48,21.49-48,48v117.92c-12.883,14.565-18.41,34.215-15.008,53.36
				c4.844,26.274,25.382,46.843,51.648,51.728c3.698,0.646,7.446,0.973,11.2,0.976c35.24,0.193,63.964-28.218,64.157-63.457
				c0.086-15.686-5.609-30.854-15.997-42.607V217.92z M304,217.92c0-8.837,7.163-16,16-16s16,7.163,16,16v16h-32V217.92z
				 M344.034,399.121c-1.057,1.193-2.202,2.306-3.426,3.327l-0.016-0.032c-7.329,6.176-17.041,8.742-26.464,6.992
				c-12.976-2.553-23.104-12.725-25.6-25.712c-2.006-10.922,1.863-22.096,10.192-29.44l5.296-4.8V265.92h32v83.568l5.296,4.8
				C354.444,365.917,355.662,385.989,344.034,399.121z"/>
			<rect x="128" y="185.92" width="96" height="32"/>
			<rect x="128" y="249.92" width="64" height="32"/>
			<rect x="128" y="313.92" width="96" height="32"/>
			<rect x="128" y="377.92" width="64" height="32"/>
			<rect x="256" y="473.92" width="32" height="32"/>
			<rect x="320" y="473.92" width="32" height="32"/>
			<polygon points="256,6.08 0,193.808 0,265.92 64,265.92 64,505.92 224,505.92 224,473.92 96,473.92 96,233.92 32,233.92 
				32,210.032 256,45.76 480,210.032 480,233.92 416,233.92 416,473.92 384,473.92 384,505.92 448,505.92 448,265.92 512,265.92 
				512,193.808 			"/>
		</g>
	</g>
</g>
<g>
</g>
<g>
</g>
<g>
</g>
<g>
</g>
<g>
</g>
<g>
</g>
<g>
</g>
<g>
</g>
<g>
</g>
<g>
</g>
<g>
</g>
<g>
</g>
<g>
</g>
<g>
</g>
<g>
</g>
</svg>
