<svg xmlns="http://www.w3.org/2000/svg" xmlns:xlink="http://www.w3.org/1999/xlink" width="537.366" height="153.517" viewBox="0 0 537.366 153.517">
  <defs>
    <linearGradient id="linear-gradient" x1="0.5" y1="1" x2="0.5" gradientUnits="objectBoundingBox">
      <stop offset="0" stop-color="#21c2fd"/>
      <stop offset="1" stop-color="#1fd2fb"/>
    </linearGradient>
    <filter id="Path_70" x="0.004" y="20.418" width="88.481" height="90.749" filterUnits="userSpaceOnUse">
      <feOffset dx="-1" input="SourceAlpha"/>
      <feGaussianBlur stdDeviation="6" result="blur"/>
      <feFlood flood-opacity="0.161"/>
      <feComposite operator="in" in2="blur"/>
      <feComposite in="SourceGraphic"/>
    </filter>
    <linearGradient id="linear-gradient-2" x1="0.5" x2="0.5" y2="1" gradientUnits="objectBoundingBox">
      <stop offset="0" stop-color="#feb22a"/>
      <stop offset="1" stop-color="#fee07f"/>
    </linearGradient>
    <filter id="Path_68" x="0" y="62.749" width="88.113" height="90.768" filterUnits="userSpaceOnUse">
      <feOffset dx="-1" input="SourceAlpha"/>
      <feGaussianBlur stdDeviation="6" result="blur-2"/>
      <feFlood flood-opacity="0.161"/>
      <feComposite operator="in" in2="blur-2"/>
      <feComposite in="SourceGraphic"/>
    </filter>
    <linearGradient id="linear-gradient-3" x1="0.5" x2="0.5" y2="1" gradientUnits="objectBoundingBox">
      <stop offset="0" stop-color="#fe9125"/>
      <stop offset="1" stop-color="#fc491e"/>
    </linearGradient>
    <filter id="Path_67" x="55.998" y="61.179" width="88.113" height="90.716" filterUnits="userSpaceOnUse">
      <feOffset dx="-1" input="SourceAlpha"/>
      <feGaussianBlur stdDeviation="6" result="blur-3"/>
      <feFlood flood-opacity="0.161"/>
      <feComposite operator="in" in2="blur-3"/>
      <feComposite in="SourceGraphic"/>
    </filter>
    <linearGradient id="linear-gradient-4" x1="0.5" x2="0.5" y2="1" gradientUnits="objectBoundingBox">
      <stop offset="0" stop-color="#2ebe21"/>
      <stop offset="1" stop-color="#7bdb27"/>
    </linearGradient>
    <filter id="Path_69" x="76.337" y="0" width="88.481" height="90.749" filterUnits="userSpaceOnUse">
      <feOffset dx="-1" input="SourceAlpha"/>
      <feGaussianBlur stdDeviation="6" result="blur-4"/>
      <feFlood flood-opacity="0.161"/>
      <feComposite operator="in" in2="blur-4"/>
      <feComposite in="SourceGraphic"/>
    </filter>
  </defs>
  <g id="Group_20" data-name="Group 20" transform="translate(-689.369 -495.388)">
    <path id="Path_79" data-name="Path 79" d="M55.836-49.1V0H44.055L42.669-5.247A13.786,13.786,0,0,1,35.788-.1a27.2,27.2,0,0,1-8.365,1.287,22.789,22.789,0,0,1-9.653-2.03A24.186,24.186,0,0,1,10.1-6.385,25.554,25.554,0,0,1,5-14.6,27.442,27.442,0,0,1,3.168-24.651,27.442,27.442,0,0,1,5-34.7a25.554,25.554,0,0,1,5.1-8.217,24.186,24.186,0,0,1,7.673-5.544,22.789,22.789,0,0,1,9.653-2.029,24.632,24.632,0,0,1,8.712,1.485,14.746,14.746,0,0,1,6.534,4.752L44.055-49.1ZM42.174-24.453a17.683,17.683,0,0,0-1.04-6.485,11.629,11.629,0,0,0-2.772-4.257A10.479,10.479,0,0,0,34.3-37.57a16.354,16.354,0,0,0-5-.743,11.646,11.646,0,0,0-5,1.089A13.915,13.915,0,0,0,20.2-34.3a12.941,12.941,0,0,0-2.772,4.356,14.378,14.378,0,0,0-.99,5.3,14.262,14.262,0,0,0,.99,5.346A13.056,13.056,0,0,0,20.2-15a13.915,13.915,0,0,0,4.109,2.92,11.646,11.646,0,0,0,5,1.089,13.112,13.112,0,0,0,9.058-3.316Q42.075-17.622,42.174-24.453ZM93.06-50.49a23.124,23.124,0,0,1,9.7,2.029,23.472,23.472,0,0,1,7.673,5.544,26.016,26.016,0,0,1,5.049,8.217,27.442,27.442,0,0,1,1.831,10.048A27.442,27.442,0,0,1,115.484-14.6a26.016,26.016,0,0,1-5.049,8.217,23.472,23.472,0,0,1-7.673,5.544,23.124,23.124,0,0,1-9.7,2.03A23.336,23.336,0,0,1,84.744-.347a16.9,16.9,0,0,1-6.336-3.91V19.6H64.746V-49.1H76.428l1.98,3.366A16.986,16.986,0,0,1,84.843-49.4,28.161,28.161,0,0,1,93.06-50.49Zm-1.782,39.5a11.646,11.646,0,0,0,5-1.089A13.284,13.284,0,0,0,100.337-15a14.2,14.2,0,0,0,2.772-4.306,13.664,13.664,0,0,0,1.039-5.346,13.776,13.776,0,0,0-1.039-5.3,14.046,14.046,0,0,0-2.772-4.356,13.284,13.284,0,0,0-4.059-2.92,11.646,11.646,0,0,0-5-1.089,16.354,16.354,0,0,0-5,.743,10.48,10.48,0,0,0-4.059,2.376A11.142,11.142,0,0,0,79.5-30.937a17.829,17.829,0,0,0-.99,6.287,16.383,16.383,0,0,0,.99,5.989A12.257,12.257,0,0,0,82.219-14.4a10.923,10.923,0,0,0,4.059,2.574A14.588,14.588,0,0,0,91.278-10.989Zm60.291-39.5a23.124,23.124,0,0,1,9.7,2.029,23.472,23.472,0,0,1,7.673,5.544,26.015,26.015,0,0,1,5.049,8.217,27.442,27.442,0,0,1,1.832,10.048A27.442,27.442,0,0,1,173.992-14.6a26.015,26.015,0,0,1-5.049,8.217,23.472,23.472,0,0,1-7.673,5.544,23.124,23.124,0,0,1-9.7,2.03,23.336,23.336,0,0,1-8.316-1.534,16.9,16.9,0,0,1-6.336-3.91V19.6H123.255V-49.1h11.682l1.98,3.366a16.986,16.986,0,0,1,6.435-3.663A28.161,28.161,0,0,1,151.569-50.49Zm-1.782,39.5a11.646,11.646,0,0,0,5-1.089A13.284,13.284,0,0,0,158.845-15a14.2,14.2,0,0,0,2.772-4.306,13.664,13.664,0,0,0,1.04-5.346,13.776,13.776,0,0,0-1.04-5.3,14.046,14.046,0,0,0-2.772-4.356,13.284,13.284,0,0,0-4.059-2.92,11.646,11.646,0,0,0-5-1.089,16.354,16.354,0,0,0-5,.743,10.479,10.479,0,0,0-4.059,2.376,11.142,11.142,0,0,0-2.723,4.257,17.829,17.829,0,0,0-.99,6.287,16.383,16.383,0,0,0,.99,5.989,12.257,12.257,0,0,0,2.723,4.257,10.923,10.923,0,0,0,4.059,2.574A14.589,14.589,0,0,0,149.787-10.989ZM219.582-49.1h14.949L203.544,19.6H188.6L200.772-7.425,179.982-49.1h15.246L208-23.463Zm49.005-1.386a23.124,23.124,0,0,1,9.7,2.029,23.472,23.472,0,0,1,7.672,5.544A26.016,26.016,0,0,1,291.01-34.7a27.442,27.442,0,0,1,1.831,10.048A27.442,27.442,0,0,1,291.01-14.6a26.016,26.016,0,0,1-5.049,8.217,23.472,23.472,0,0,1-7.672,5.544,23.124,23.124,0,0,1-9.7,2.03,23.336,23.336,0,0,1-8.316-1.534,16.9,16.9,0,0,1-6.336-3.91V19.6H240.273V-49.1h11.682l1.98,3.366A16.986,16.986,0,0,1,260.37-49.4,28.161,28.161,0,0,1,268.587-50.49Zm-1.782,39.5a11.646,11.646,0,0,0,5-1.089A13.284,13.284,0,0,0,275.863-15a14.2,14.2,0,0,0,2.772-4.306,13.665,13.665,0,0,0,1.039-5.346,13.776,13.776,0,0,0-1.039-5.3,14.046,14.046,0,0,0-2.772-4.356,13.284,13.284,0,0,0-4.059-2.92,11.646,11.646,0,0,0-5-1.089,16.354,16.354,0,0,0-5,.743,10.479,10.479,0,0,0-4.059,2.376,11.142,11.142,0,0,0-2.723,4.257,17.829,17.829,0,0,0-.99,6.287,16.383,16.383,0,0,0,.99,5.989,12.257,12.257,0,0,0,2.723,4.257,10.923,10.923,0,0,0,4.059,2.574A14.588,14.588,0,0,0,266.8-10.989ZM313.533,0H299.871V-49.1h13.662ZM306.7-55.836a7.268,7.268,0,0,1-5.346-2.178,7.268,7.268,0,0,1-2.178-5.346,7.434,7.434,0,0,1,2.178-5.4,7.186,7.186,0,0,1,5.346-2.228,7.186,7.186,0,0,1,5.346,2.228,7.434,7.434,0,0,1,2.178,5.4,7.268,7.268,0,0,1-2.178,5.346A7.268,7.268,0,0,1,306.7-55.836Zm41.283,5.346a22.672,22.672,0,0,1,10.1,2.227,25.567,25.567,0,0,1,7.821,5.841,26.024,26.024,0,0,1,5.049,8.316,27.027,27.027,0,0,1,1.782,9.653,27.722,27.722,0,0,1-.792,6.336H336.9a16.9,16.9,0,0,0,5.643,5.693,14.5,14.5,0,0,0,7.92,2.326,35.794,35.794,0,0,0,7.475-.693,42.2,42.2,0,0,0,6.089-1.782l4.554,8.415A28.381,28.381,0,0,1,360.211-.2a35.381,35.381,0,0,1-10.048,1.386,28.925,28.925,0,0,1-10.89-2.03,28.619,28.619,0,0,1-8.811-5.495,25.479,25.479,0,0,1-5.94-8.217,23.95,23.95,0,0,1-2.178-10.1,25.377,25.377,0,0,1,1.98-9.949,25.476,25.476,0,0,1,5.494-8.217,27.036,27.036,0,0,1,8.168-5.593A24.229,24.229,0,0,1,347.985-50.49Zm11.187,21.78a13.9,13.9,0,0,0-4.257-6.93,10.272,10.272,0,0,0-6.93-2.673,10.955,10.955,0,0,0-7.177,2.673,13.475,13.475,0,0,0-4.406,6.93Z" transform="translate(854 602)"/>
    <g id="Group_19" data-name="Group 19" transform="translate(-61.401 -80.656)">
      <g id="Group_18" data-name="Group 18" transform="translate(769.773 608.103)">
        <g id="Path_57" data-name="Path 57" transform="translate(61.277 0) rotate(90)">
          <path id="Path_65" data-name="Path 65" d="M32.376,28.773a3.591,3.591,0,0,1-3.589,3.591h0C9.5,32.886-.4,18.337.012,3.591A3.591,3.591,0,0,1,3.6,0H28.779A3.592,3.592,0,0,1,32.37,3.589v0Z" transform="translate(14.307 14.304)" fill="none"/>
          <path id="Path_66" data-name="Path 66" d="M45.631,45.614a3.573,3.573,0,0,1-2.537,1.052c-19.287.521-29.188-14.028-28.772-28.772a3.587,3.587,0,0,1,3.589-3.589H43.094a3.589,3.589,0,0,1,3.589,3.589V43.077a3.573,3.573,0,0,1-1.052,2.537M55.747,55.73a17.771,17.771,0,0,0,5.242-12.653V17.895A17.915,17.915,0,0,0,43.094,0H17.912A17.783,17.783,0,0,0,5.258,5.241,18.8,18.8,0,0,0,.017,17.895,42.42,42.42,0,0,0,12.276,48.937c8.06,8.07,18.783,12.365,31.205,12.03A17.535,17.535,0,0,0,55.747,55.73Z" transform="translate(0 0)" fill="#21c2fd"/>
        </g>
        <g transform="matrix(1, 0, 0, 1, -19, -32.06)" filter="url(#Path_70)">
          <path id="Path_70-2" data-name="Path 70" d="M46.99,34.555c-.062-.047,5.048,2.765,5.444,7.859s-1.609,11.9-8.8,12.278c-7.178.086-17.742.062-25.283,0C5.238,54.779-.491,43.741.033,33.908.181,21.09,7.625,9.276,15.1,3.444c7.156-5.969,20.035-3.991,28.03,4.464,0-.041-28.069-.843-28.537,28.266,0,0-.362,4,4.627,3.872,7.27-.07,25.415.153,25.55-.344C46.857,38.927,47.018,37.059,46.99,34.555Z" transform="translate(19 38.42)" fill="url(#linear-gradient)"/>
        </g>
      </g>
      <g id="Group_16" data-name="Group 16" transform="translate(769.769 656.794)">
        <g id="Path_57-2" data-name="Path 57" transform="translate(0.002 0.131)">
          <path id="Path_65-2" data-name="Path 65" d="M929.815,712.658a3.591,3.591,0,0,1-3.589,3.591h0c-19.286.522-29.187-14.027-28.773-28.773a3.59,3.59,0,0,1,3.589-3.591h25.178a3.592,3.592,0,0,1,3.591,3.589h0Z" transform="translate(-883.132 -669.581)" fill="none"/>
          <path id="Path_66-2" data-name="Path 66" d="M934.071,720.5a3.573,3.573,0,0,1-2.537,1.052c-19.287.521-29.188-14.027-28.772-28.772a3.587,3.587,0,0,1,3.589-3.589h25.183a3.589,3.589,0,0,1,3.589,3.589v25.183a3.573,3.573,0,0,1-1.052,2.537m10.116,10.116a17.771,17.771,0,0,0,5.242-12.653V692.781a17.915,17.915,0,0,0-17.895-17.895H906.351a17.783,17.783,0,0,0-12.654,5.241,18.8,18.8,0,0,0-5.24,12.654,42.808,42.808,0,0,0,12.155,31.251c8.06,8.07,18.887,12.157,31.309,11.821A17.536,17.536,0,0,0,944.187,730.616Z" transform="translate(-888.439 -674.886)" fill="#fec92e"/>
        </g>
        <g transform="matrix(1, 0, 0, 1, -19, -80.75)" filter="url(#Path_68)">
          <path id="Path_68-2" data-name="Path 68" d="M660.3,829.619c-.062.047,5.012-2.79,5.406-7.931s-1.641-11.44-8.786-11.82-17.5-.131-24.991-.068c-13.6-.152-18.774,10.549-18.254,20.472a42.224,42.224,0,0,0,14.288,30.68c7.106,6.024,20.58,4.029,28.519-4.5,0,.041-27.6,1.049-28.519-28.441,0,0-.188-4.057,4.765-3.931,7.218.071,25.235-.155,25.369.347C660.169,825.207,660.433,827.459,660.3,829.619Z" transform="translate(-594.64 -728.91)" fill="url(#linear-gradient-2)"/>
        </g>
      </g>
      <g id="Group_15" data-name="Group 15" transform="translate(816.888 655.223)">
        <g id="Path_57-3" data-name="Path 57" transform="translate(0 0.131)">
          <path id="Path_65-3" data-name="Path 65" d="M897.439,712.658a3.592,3.592,0,0,0,3.589,3.591h0c19.286.521,29.187-14.027,28.773-28.773a3.591,3.591,0,0,0-3.589-3.591H901.036a3.592,3.592,0,0,0-3.591,3.589v0Z" transform="translate(-883.133 -669.581)" fill="none"/>
          <path id="Path_66-3" data-name="Path 66" d="M903.8,720.5a3.574,3.574,0,0,0,2.537,1.052c19.287.521,29.188-14.028,28.772-28.772a3.587,3.587,0,0,0-3.589-3.589H906.334a3.589,3.589,0,0,0-3.589,3.589v25.183A3.574,3.574,0,0,0,903.8,720.5m-10.116,10.116a17.772,17.772,0,0,1-5.242-12.653V692.781a17.915,17.915,0,0,1,17.895-17.895h25.183a17.783,17.783,0,0,1,12.654,5.241,18.8,18.8,0,0,1,5.24,12.654,42.808,42.808,0,0,1-12.155,31.251c-8.06,8.07-18.886,12.157-31.309,11.821A17.535,17.535,0,0,1,893.681,730.616Z" transform="translate(-888.439 -674.886)" fill="#fc491e"/>
        </g>
        <g transform="matrix(1, 0, 0, 1, -66.12, -79.18)" filter="url(#Path_67)">
          <path id="Path_67-2" data-name="Path 67" d="M619.091,829.619c.062.047-5.012-2.79-5.406-7.931s1.641-11.44,8.786-11.82,17.5-.131,24.991-.068c13.6-.152,18.774,10.549,18.254,20.472-.147,12.936-7.252,24.546-14.357,30.57s-20.5,4.2-28.436-4.331c0,.041,27.588.987,28.506-28.5,0,0,.188-4.057-4.765-3.931-7.218.07-25.235-.155-25.369.347C619.223,825.207,618.959,827.459,619.091,829.619Z" transform="translate(-538.64 -730.48)" fill="url(#linear-gradient-3)"/>
        </g>
      </g>
      <g id="Group_14" data-name="Group 14" transform="translate(837.31 587.685)">
        <g id="Path_57-4" data-name="Path 57" transform="translate(60.986 0) rotate(90)">
          <path id="Path_65-4" data-name="Path 65" d="M32.376,3.6A3.592,3.592,0,0,0,28.787.014h0C9.5-.508-.4,14.041.012,28.787A3.591,3.591,0,0,0,3.6,32.378H28.779a3.592,3.592,0,0,0,3.591-3.589v0Z" transform="translate(14.307 14.304)" fill="none"/>
          <path id="Path_66-4" data-name="Path 66" d="M45.631,15.371a3.573,3.573,0,0,0-2.537-1.052C23.807,13.8,13.906,28.347,14.323,43.091a3.587,3.587,0,0,0,3.589,3.589H43.095a3.589,3.589,0,0,0,3.589-3.589V17.908a3.574,3.574,0,0,0-1.052-2.537M55.747,5.256a17.772,17.772,0,0,1,5.242,12.653V43.091A17.915,17.915,0,0,1,43.095,60.986H17.912A17.783,17.783,0,0,1,5.258,55.745,18.8,18.8,0,0,1,.017,43.091,42.419,42.419,0,0,1,12.275,12.048C20.336,3.978,31.059-.317,43.481.018A17.535,17.535,0,0,1,55.747,5.256Z" transform="translate(0 0)" fill="#25bb21"/>
        </g>
        <g transform="matrix(1, 0, 0, 1, -86.54, -11.64)" filter="url(#Path_69)">
          <path id="Path_69-2" data-name="Path 69" d="M46.99,20.193c-.062.047,5.048-2.765,5.444-7.859S50.824.433,43.629.056c-7.177-.086-17.742-.062-25.283,0C5.238-.031-.491,11.008.033,20.841.181,33.658,7.625,45.473,15.1,51.3c7.156,5.969,20.035,3.991,28.03-4.464,0,.041-28.069.843-28.536-28.266,0,0-.362-4,4.627-3.872,7.27.07,25.414-.153,25.55.344C46.857,15.821,47.018,17.689,46.99,20.193Z" transform="translate(147.82 72.75) rotate(-180)" fill="url(#linear-gradient-4)"/>
        </g>
      </g>
    </g>
  </g>
</svg>
