<svg xmlns="http://www.w3.org/2000/svg" width="97.5" height="27.3" viewBox="0 0 97.5 27.3">
  <g id="g2-crowd-white1" transform="translate(-1 -1.4)">
    <g id="Group_2" data-name="Group 2">
      <g id="Group_1" data-name="Group 1">
        <path id="Path_1" data-name="Path 1" d="M21.1,6a2.575,2.575,0,0,0,.7-1.6,1.586,1.586,0,0,0-1.7-1.5,1.819,1.819,0,0,0-1.8,1.5L17.1,4a3.034,3.034,0,0,1,3.1-2.6,2.95,2.95,0,0,1,3.1,2.9,3.581,3.581,0,0,1-1.1,2.5c-1.3,1.5-1.3,1.5-2.7,3.1h3.7v1.3H17.1v-.6Z" fill="#446373"/>
      </g>
      <path id="Path_2" data-name="Path 2" d="M17.2,18V13.1H27.9a14.919,14.919,0,0,1,.2,2.1A13.55,13.55,0,1,1,14.5,1.7V6.5a8.7,8.7,0,0,0,0,17.4A8.882,8.882,0,0,0,22.8,18" fill="#446373"/>
    </g>
    <g id="Group_3" data-name="Group 3">
      <path id="Path_3" data-name="Path 3" d="M38,14.6c0-3.6.2-5,.8-5.9A4.8,4.8,0,0,1,42.9,7a5.01,5.01,0,0,1,3.7,1.3,3.761,3.761,0,0,1,.8,2.8V12h-3c0-1.5-.1-1.8-.3-2.1a1.375,1.375,0,0,0-1.3-.6,1.435,1.435,0,0,0-1.3.7c-.3.6-.4,1.7-.4,4.7a18.359,18.359,0,0,0,.3,4.4,1.34,1.34,0,0,0,1.3.8c1.2,0,1.5-.6,1.6-2.8h3c0,1.9-.1,2.7-.5,3.4-.6,1.1-2,1.7-4.1,1.7-2.4,0-3.9-.9-4.4-2.7A25.491,25.491,0,0,1,38,14.6Z" fill="#446373"/>
      <path id="Path_4" data-name="Path 4" d="M49.1,7.2h4.7c2.2,0,2.7.1,3.4.7a3.522,3.522,0,0,1,1,2.9,4.148,4.148,0,0,1-.7,2.7,2.873,2.873,0,0,1-1.9,1c2,.2,2.6,1.2,2.7,3.6a21.326,21.326,0,0,0,.1,2.2,5.9,5.9,0,0,0,.2,1.4H55.4a18.7,18.7,0,0,1-.1-2.8c0-1.7-.1-2.6-.5-3-.2-.3-.5-.3-1.3-.3H52v6.1H49l.1-14.5Zm4.2,6.4c1.4,0,1.9-.6,1.9-2.1a2.3,2.3,0,0,0-.6-1.8,1.737,1.737,0,0,0-1.2-.3H52.1v4.1l1.2.1Z" fill="#446373"/>
      <path id="Path_5" data-name="Path 5" d="M60.2,14.5c0-3.4.1-4.6.7-5.6C61.6,7.7,63.1,7,65.1,7c2.3,0,3.8.8,4.4,2.4a17.655,17.655,0,0,1,.4,5.1c0,3.1-.1,4.5-.6,5.3-.7,1.4-2.2,2.1-4.3,2.1s-3.5-.6-4.2-1.9C60.3,19.1,60.2,17.9,60.2,14.5Zm4.9,5.3a1.456,1.456,0,0,0,1.6-1.3,38.142,38.142,0,0,0,.2-4.5,14.876,14.876,0,0,0-.3-4,1.541,1.541,0,0,0-1.5-.8,1.584,1.584,0,0,0-1.6,1,33.518,33.518,0,0,0-.2,4.4,26.87,26.87,0,0,0,.2,3.8A1.417,1.417,0,0,0,65.1,19.8Z" fill="#446373"/>
      <path id="Path_6" data-name="Path 6" d="M71,7.2h3l1,5.3c.3,1.9.4,3.7.6,7,.6-4.5.8-5.7,1.1-7l1.2-5.3h3.4l1.1,5.3a46.587,46.587,0,0,1,.8,7,61.043,61.043,0,0,1,.9-7L85,7.2h2.7L84.8,21.8H81.5L80,15c-.2-1.2-.5-3.9-.6-5.4-.4,3.3-.5,3.7-.8,5.4l-1.4,6.8H73.8Z" fill="#446373"/>
      <path id="Path_7" data-name="Path 7" d="M88.9,7.2H93c2.4,0,3.1.1,3.8.7.9.7,1.4,1.9,1.6,4.2.1.9.1,2.1.1,3.1a12.136,12.136,0,0,1-.6,4.8,4.011,4.011,0,0,1-3.8,1.9H89L88.9,7.2Zm4.3,12.3c1,0,1.6-.2,1.8-.8a12.544,12.544,0,0,0,.3-3.8,19.439,19.439,0,0,0-.3-4.5c-.2-.6-.8-.9-1.7-.9H92v10Z" fill="#446373"/>
    </g>
    <rect id="Rectangle_1" data-name="Rectangle 1" width="1" height="26.9" transform="translate(32.7 1.5)" fill="#446373"/>
  </g>
</svg>
