<svg xmlns="http://www.w3.org/2000/svg"  viewBox="82 82 498 141" width="100%" height="100%" fill="#689f38">
<title>GetApp Logo</title>
<path class="getapp" d="M147.4,149.6c-11.2,0-16.8-3.2-16.8-11s5.6-11.2,16.8-11.2H165c11.6,0,16.6,4.4,16.6,15.9      c0,29.2-19,50.2-48.9,50.2c-29,0-50.1-22.2-50.1-55.5c0-34,20.8-55.4,52.9-55.4c23.3,0,38.6,11.5,38.6,21.8      c0,5.9-4.6,11.2-10.2,11.2c-7.1,0-14.7-10.2-29.2-10.2c-16.1,0-26.4,11.9-26.4,32.1c0,20.6,10.6,33.1,26.2,33.1      c12.5,0,20.9-8.1,21.2-21.1L147.4,149.6L147.4,149.6z M225.2,172.3c11.6,0,19.1-7.5,24.4-7.5c5.6,0,9.3,3.7,9.3,9      c0,9.1-14.7,19.4-34.9,19.4c-22.8,0-40.2-17.4-40.2-41.1s16.8-41.5,39-41.5s37.8,17.7,37.8,38.4c0,8-3.7,9.4-11.5,9.4h-41.5      C208.7,167.2,215.2,172.3,225.2,172.3z M238,143.3c-0.5-7.9-7.1-13.9-15-13.8c-7.8,0-14,5.3-15.6,13.8H238L238,143.3z M270.2,135.2      c-8.2,0-13.1-4-13.1-10c0-6.3,4.7-9.9,14-10.3v-10.2c0-11.3,3.7-16.9,11.6-16.9s11.5,5.6,11.5,16.9v10.2h2.1c9.3,0,14.6,4,14.6,10.3      s-4.9,10-14.7,10h-1.9v41.1c0,11.3-3.5,16.9-11.5,16.9s-11.6-5.6-11.6-16.9v-41.1L270.2,135.2L270.2,135.2z M322.4,182.5      c-2.4,7.1-6.3,10.6-11.5,10.6c-6,0.2-11.1-4.4-11.3-10.4c0-0.3,0-0.6,0-0.9c-0.1-2.4,0.3-4.7,1.2-6.9l27.2-73.9      c3.8-10.5,9.4-15.5,18.3-15.5c8.1,0,14.3,4.9,17.5,13.8l26.5,75.2c0.9,2.4,1.5,4.9,1.6,7.5c0,6.8-5.1,11.2-11.8,11.2      c-6.2,0-10.2-3.8-12.5-11.6l-3-9.7h-38.7L322.4,182.5z M357.7,149.9L345.7,111l-13,38.9H357.7L357.7,149.9z M405.2,222.8      c-8,0-11.6-5.6-11.6-16.9v-78c0-11.3,3.7-16.8,11.6-16.8c4.6,0,8.2,2.4,11,7.4c4.7-5.2,11.2-8,19.1-8c19.4,0,35.3,16.9,35.3,40.8      c0,23.4-16.2,41.7-35.6,41.7c-6.7,0.1-13.2-2.3-18.3-6.8v19.7C416.9,217.2,413.2,222.8,405.2,222.8z M431.8,171.3      c8.8,0,15.3-7.7,15.3-19.7c0-11.8-6.8-19.4-15.3-19.4s-15.3,7.4-15.3,19.4S422.9,171.3,431.8,171.3L431.8,171.3z M485.8,222.8      c-8,0-11.6-5.6-11.6-16.9v-78c0-11.3,3.7-16.8,11.6-16.8c4.6,0,8.2,2.4,11,7.4c4.7-5.2,11.2-8,19.1-8c19.4,0,35.3,16.9,35.3,40.8      c0,23.4-16.2,41.7-35.6,41.7c-6.7,0.1-13.2-2.3-18.3-6.8v19.7C497.4,217.2,493.8,222.8,485.8,222.8L485.8,222.8z M512.3,171.3      c8.8,0,15.3-7.7,15.3-19.7c0-11.8-6.8-19.4-15.3-19.4s-15.3,7.4-15.3,19.4S503.5,171.3,512.3,171.3z"></path>
<g>
<path class="getapp" d="M565.5,98c7.7,0,13.9,6.2,13.9,13.9c0,7.7-6.2,13.9-13.9,13.9c-7.7,0-13.9-6.2-13.9-13.9       C551.7,104.2,557.9,98,565.5,98z M565.5,122.4c5.8,0,10.5-4.7,10.5-10.5s-4.7-10.5-10.5-10.5c-5.8,0-10.5,4.7-10.5,10.5v0       C555,117.7,559.7,122.4,565.5,122.4C565.5,122.4,565.5,122.4,565.5,122.4L565.5,122.4z M563.3,117.8c0.2,0.8-0.4,1.6-1.2,1.8       c-0.2,0-0.3,0-0.5,0c-1.3,0-1.7-0.6-1.7-1.8v-11.6c0-0.9,0.3-1.6,1.7-1.6h4.3c3.1,0,5.6,0.9,5.6,4.4c0,2.7-1.4,4-3.8,4.2l2.7,4.4       c0.1,0.2,0.2,0.5,0.2,0.8c0,0.8-0.5,1.3-1.8,1.3s-1.6-0.9-2.1-1.8l-2.4-4.4h-1.1L563.3,117.8L563.3,117.8z M566.2,110.7       c1.2,0,2-0.3,2-1.7s-0.8-1.7-2-1.7h-2.8v3.4H566.2z"></path>
</g>
</svg>